<?xml version="1.0" encoding="UTF-8"?>
<svg id="_레이어_2" data-name="레이어 2" xmlns="http://www.w3.org/2000/svg" viewBox="0 0 68.47 73.4">
  <defs>
    <style>
      .cls-1 {
        stroke-linejoin: round;
      }

      .cls-1, .cls-2, .cls-3 {
        fill: none;
        stroke: #f4b971;
        stroke-width: 4px;
      }

      .cls-4 {
        fill: #f4b971;
      }

      .cls-2, .cls-3 {
        stroke-miterlimit: 10;
      }

      .cls-3 {
        stroke-linecap: round;
      }
    </style>
  </defs>
  <g id="_레이어_1-2" data-name="레이어 1">
    <g>
      <path class="cls-4" d="M29.41,15.87c8.24,0,15.74,4.88,19.09,12.43.05.11.1.21.15.31l11.23,20.32-36.4,20.11-11.17-20.22c-.06-.11-.12-.21-.19-.32-2.72-4-3.94-8.69-3.53-13.57.86-10.08,9.12-18.25,19.21-19.01.54-.04,1.08-.06,1.61-.06M29.41,11.87c-.63,0-1.27.02-1.91.07-12.06.9-21.88,10.61-22.9,22.66-.51,6.01,1.12,11.62,4.21,16.16l11.65,21.09c.55.99,1.57,1.55,2.63,1.55.49,0,.99-.12,1.45-.37l38.16-21.08c1.45-.8,1.98-2.63,1.18-4.08l-11.71-21.2c-3.87-8.72-12.6-14.8-22.75-14.8h0Z"/>
      <path class="cls-2" d="M7.71,28.59c-2.47-2.82-3.96-6.51-3.96-10.55"/>
      <path class="cls-2" d="M3.75,18.03C3.75,9.18,10.92,2,19.78,2c7.6,0,13.97,5.29,15.62,12.39"/>
      <path class="cls-3" d="M17.54,39.82c-3.22-5.85-1.08-13.2,4.77-16.42,5.85-3.22,13.2-1.08,16.42,4.77"/>
      <rect class="cls-2" x="19.87" y="40.99" width="31.14" height="13.39" rx="1.79" ry="1.79" transform="translate(-18.59 22.97) rotate(-28.8)"/>
      <path class="cls-4" d="M28.08,29.87c-1.71,0-3.09,1.38-3.09,3.09s1.38,3.09,3.09,3.09,3.09-1.38,3.09-3.09-1.38-3.09-3.09-3.09h0Z"/>
      <path class="cls-1" d="M48.93,23.39l8.51-.8c.71-.07,1.39.3,1.71.93l6.99,13.49c.07.14.12.28.16.43.26,1.2,1,6.39-5.32,8"/>
      <path class="cls-1" d="M7.28,45.98l-4.79,6.47c-.6.82-.65,1.91-.12,2.78l7.63,12.44c.12.19.25.36.42.51,1.03.94,5,3.97,9.52-.5"/>
    </g>
  </g>
</svg>