<?xml version="1.0" encoding="UTF-8"?>
<svg id="_레이어_2" data-name="레이어 2" xmlns="http://www.w3.org/2000/svg" viewBox="0 0 80.16 65.81">
  <defs>
    <style>
      .cls-1 {
        fill: #d08ae3;
      }

      .cls-2 {
        fill: none;
        stroke: #d08ae3;
        stroke-linejoin: round;
        stroke-width: 4px;
      }
    </style>
  </defs>
  <g id="_레이어_1-2" data-name="레이어 1">
    <g>
      <path class="cls-1" d="M62.98,4c4.51,0,8.17,3.67,8.17,8.17s-3.67,8.17-8.17,8.17-8.17-3.67-8.17-8.17,3.67-8.17,8.17-8.17M62.98,0c-6.72,0-12.17,5.45-12.17,12.17s5.45,12.17,12.17,12.17,12.17-5.45,12.17-12.17S69.71,0,62.98,0h0Z"/>
      <path class="cls-2" d="M52.52,12.17l-12.32-9.69c-.33-.26-.8-.23-1.1.07l-13.53,13.67c-1.92,1.94-1.87,5.07.11,6.95l.88.84c1.95,1.84,5.01,1.76,6.86-.18l5.1-5.35L2.21,59.78c-.44.5-.13,1.3.53,1.37l15.08,1.6c.26.03.52-.07.7-.26l14.35-15.71-11.46,15.41c-.4.53-.04,1.29.62,1.32,4.23.19,15.67.62,16.28-.07.55-.62,9.23-7.68,13.88-11.44,1.53-1.24,1.6-3.53.16-4.88l-8.12-7.6c-.37-.34-.35-.93.04-1.24l5.64-4.62c.44-.36,1.1-.18,1.3.35l3.66,9.77c.12.33.44.54.79.54l17.9-.29c.76-.01,1.49-.28,2.06-.78,1.69-1.48,4.81-4.91-.13-8.96-.61-.5-1.74-.83-2.53-.82l-9.36.18c-.37,0-.71-.24-.81-.6l-3.03-10.39"/>
    </g>
  </g>
</svg>